<?xml version="1.0" standalone="no"?>
<!DOCTYPE svg PUBLIC "-//W3C//DTD SVG 1.0//EN" "http://www.w3.org/TR/2001/REC-SVG-20010904/DTD/svg10.dtd">
<svg xmlns="http://www.w3.org/2000/svg" xmlns:xlink="http://www.w3.org/1999/xlink" id="body_1" width="16" height="12">

<g transform="matrix(0.019607875 0 0 0.019607875 2 -0)">
	<g>
		<g>
			<g>
                <path d="M570.107 500.254C 505.07 470.883 502.596 344.813 502.548 341.63202L502.548 341.63202L502.548 257.05402C 502.548 175.65201 452.806 105.655014 382.121 75.85101C 381.969 34 347.883 0 306.001 0C 264.118 0 230.033 34.002 229.88 75.849C 159.198 105.653 109.455 175.65 109.455 257.052L109.455 257.052L109.455 341.63C 109.409004 344.811 106.933 470.881 41.894005 500.252C 34.485004 503.599 30.413006 511.664 32.126007 519.612C 33.837006 527.561 40.866005 533.238 48.99701 533.238L48.99701 533.238L213.87701 533.238C 217.25702 551.832 226.04901 569.13 239.49602 583.141C 257.35602 601.74896 280.975 611.997 305.99802 611.997C 331.023 611.997 354.64203 601.749 372.5 583.141C 385.949 569.12897 394.741 551.83 398.119 533.238L398.119 533.238L562.999 533.238C 571.13 533.238 578.158 527.56195 579.87103 519.612C 581.586 511.664 577.516 503.6 570.107 500.254zM484.434 439.859C 491.271 460.587 500.952 481.403 514.68 498.725L514.68 498.725L97.32 498.725C 111.046 481.405 120.727 460.59 127.563995 439.859L127.563995 439.859L484.434 439.859zM306.001 34.515C 324.946 34.515 340.96402 47.245 345.976 64.597C 333.06403 61.919 319.694 60.507 306.001 60.507C 292.308 60.507 278.93802 61.918 266.026 64.597C 271.039 47.246 287.057 34.515 306.001 34.515zM143.97 341.736L143.97 257.051C 143.97 167.708 216.656 95.02199 306.001 95.02199C 395.346 95.02199 468.032 167.70798 468.032 257.051L468.032 257.051L468.032 341.87698C 468.05502 344.473 468.459 371.75598 475.33502 405.34198L475.33502 405.34198L136.663 405.34198C 143.543 371.724 143.949 344.393 143.97 341.736zM306.001 577.485C 279.66 577.485 256.67102 558.493 249.292 533.239L249.292 533.239L362.708 533.239C 355.329 558.493 332.344 577.485 306.001 577.485z" stroke="none" fill="#000000" fill-rule="nonzero" />
                <path d="M306.001 119.235C 231.751 119.235 171.34401 179.64 171.34401 253.889C 171.34401 263.42 179.07101 271.147 188.602 271.147C 198.13301 271.147 205.86 263.42 205.86 253.889C 205.86 198.67201 250.783 153.75 306.002 153.75C 315.53302 153.75 323.26 146.023 323.26 136.492C 323.259 126.96 315.532 119.235 306.001 119.235z" stroke="none" fill="#000000" fill-rule="nonzero" />
			</g>
		</g>
	</g>
	<g>
	</g>
	<g>
	</g>
	<g>
	</g>
	<g>
	</g>
	<g>
	</g>
	<g>
	</g>
	<g>
	</g>
	<g>
	</g>
	<g>
	</g>
	<g>
	</g>
	<g>
	</g>
	<g>
	</g>
	<g>
	</g>
	<g>
	</g>
	<g>
	</g>
</g>
</svg>